<?xml version="1.0" encoding="UTF-8" standalone="no"?><!-- Generated by graphviz version 2.40.1 (20161225.0304)
 --><!-- Title: ndiag Pages: 1 --><svg width="102pt" height="222pt" viewBox="0.00 0.00 102.00 221.60" xmlns="http://www.w3.org/2000/svg" xmlns:xlink="http://www.w3.org/1999/xlink"><g id="graph0" class="graph" transform="scale(1 1) rotate(0) translate(4 217.6)"><title>ndiag</title><polygon fill="#ffffff" stroke="transparent" points="-4,4 -4,-217.6 98,-217.6 98,4 -4,4"></polygon><g id="clust2" class="cluster"><title>cluster_lb</title><polygon fill="none" stroke="#999999" stroke-width="2" points="8,-8 8,-84.8 86,-84.8 86,-8 8,-8"></polygon><text text-anchor="middle" x="47" y="-68.2" font-family="Arial" font-size="14.00" fill="#666666">lb</text></g><g id="clust1" class="cluster"><title>cluster_vyOS</title><polygon fill="none" stroke="#000000" stroke-width="2" points="12,-92.8 12,-169.6 82,-169.6 82,-92.8 12,-92.8"></polygon><text text-anchor="middle" x="47" y="-153" font-family="Arial" font-size="14.00" fill="#000000">vyOS</text></g><!-- vyos:bgpd --><g id="node1" class="node"><title>vyos:bgpd</title><path fill="#ffffff" stroke="#4b75b9" stroke-width="3" d="M62,-136.8C62,-136.8 32,-136.8 32,-136.8 26,-136.8 20,-130.8 20,-124.8 20,-124.8 20,-112.8 20,-112.8 20,-106.8 26,-100.8 32,-100.8 32,-100.8 62,-100.8 62,-100.8 68,-100.8 74,-106.8 74,-112.8 74,-112.8 74,-124.8 74,-124.8 74,-130.8 68,-136.8 62,-136.8"></path><text text-anchor="middle" x="47" y="-114.6" font-family="Arial" font-size="14.00" fill="#333333">bgpd</text></g><!-- lb:metallb --><g id="node2" class="node"><title>lb:metallb</title><path fill="#ffffff" stroke="#4b75b9" stroke-width="3" d="M65.6123,-52C65.6123,-52 28.3877,-52 28.3877,-52 22.3877,-52 16.3877,-46 16.3877,-40 16.3877,-40 16.3877,-28 16.3877,-28 16.3877,-22 22.3877,-16 28.3877,-16 28.3877,-16 65.6123,-16 65.6123,-16 71.6123,-16 77.6123,-22 77.6123,-28 77.6123,-28 77.6123,-40 77.6123,-40 77.6123,-46 71.6123,-52 65.6123,-52"></path><text text-anchor="middle" x="47" y="-29.8" font-family="Arial" font-size="14.00" fill="#333333">metallb</text></g><!-- vyos:bgpd&#45;&gt;lb:metallb --><g id="edge2" class="edge"><title>vyos:bgpd-&gt;lb:metallb</title><path fill="none" stroke="#333333" stroke-width="2" stroke-opacity="0.600000" d="M47,-100.3997C47,-100.3997 47,-62.0731 47,-62.0731"></path><polygon fill="#333333" fill-opacity="0.600000" stroke="#333333" stroke-width="2" stroke-opacity="0.600000" points="50.5001,-62.0731 47,-52.0731 43.5001,-62.0731 50.5001,-62.0731"></polygon></g><!-- internet --><g id="node3" class="node"><title>internet</title><path fill="none" stroke="#000000" stroke-width="2" d="M66.1796,-213.6C66.1796,-213.6 27.8204,-213.6 27.8204,-213.6 21.8204,-213.6 15.8204,-207.6 15.8204,-201.6 15.8204,-201.6 15.8204,-189.6 15.8204,-189.6 15.8204,-183.6 21.8204,-177.6 27.8204,-177.6 27.8204,-177.6 66.1796,-177.6 66.1796,-177.6 72.1796,-177.6 78.1796,-183.6 78.1796,-189.6 78.1796,-189.6 78.1796,-201.6 78.1796,-201.6 78.1796,-207.6 72.1796,-213.6 66.1796,-213.6"></path><text text-anchor="middle" x="47" y="-191.4" font-family="Arial" font-size="14.00" fill="#000000">internet</text></g><!-- internet&#45;&gt;vyos:bgpd --><g id="edge1" class="edge"><title>internet-&gt;vyos:bgpd</title><path fill="none" stroke="#333333" stroke-width="2" stroke-opacity="0.600000" d="M47,-177.3995C47,-177.3995 47,-146.8699 47,-146.8699"></path><polygon fill="#333333" fill-opacity="0.600000" stroke="#333333" stroke-width="2" stroke-opacity="0.600000" points="50.5001,-146.8698 47,-136.8699 43.5001,-146.8699 50.5001,-146.8698"></polygon></g></g></svg>