<?xml version="1.0" encoding="UTF-8" standalone="no"?><!-- Generated by graphviz version 2.40.1 (20161225.0304)
 --><!-- Title: ndiag Pages: 1 --><svg width="102pt" height="101pt" viewBox="0.00 0.00 102.00 100.80" xmlns="http://www.w3.org/2000/svg" xmlns:xlink="http://www.w3.org/1999/xlink"><g id="graph0" class="graph" transform="scale(1 1) rotate(0) translate(4 96.8)"><title>ndiag</title><polygon fill="#ffffff" stroke="transparent" points="-4,4 -4,-96.8 98,-96.8 98,4 -4,4"></polygon><g id="clust1" class="cluster"><title>cluster_db</title><polygon fill="none" stroke="#000000" stroke-width="2" points="8,-8 8,-84.8 86,-84.8 86,-8 8,-8"></polygon><text text-anchor="middle" x="47" y="-68.2" font-family="Arial" font-size="14.00" fill="#000000">db</text></g><!-- db:mysql --><g id="node1" class="node"><title>db:mysql</title><path fill="#ffffff" stroke="#4b75b9" stroke-width="3" d="M66.1713,-52C66.1713,-52 27.8287,-52 27.8287,-52 21.8287,-52 15.8287,-46 15.8287,-40 15.8287,-40 15.8287,-28 15.8287,-28 15.8287,-22 21.8287,-16 27.8287,-16 27.8287,-16 66.1713,-16 66.1713,-16 72.1713,-16 78.1713,-22 78.1713,-28 78.1713,-28 78.1713,-40 78.1713,-40 78.1713,-46 72.1713,-52 66.1713,-52"></path><text text-anchor="middle" x="47" y="-29.8" font-family="Arial" font-size="14.00" fill="#333333">mySQL</text></g></g></svg>