<?xml version="1.0" encoding="UTF-8" standalone="no"?><!-- Generated by graphviz version 2.40.1 (20161225.0304)
 --><!-- Title: ndiag Pages: 1 --><svg width="368pt" height="186pt" viewBox="0.00 0.00 368.00 185.60" xmlns="http://www.w3.org/2000/svg" xmlns:xlink="http://www.w3.org/1999/xlink"><g id="graph0" class="graph" transform="scale(1 1) rotate(0) translate(4 181.6)"><title>ndiag</title><polygon fill="#ffffff" stroke="transparent" points="-4,4 -4,-181.6 364,-181.6 364,4 -4,4"></polygon><g id="clust2" class="cluster"><title>cluster_lb</title><polygon fill="none" stroke="#999999" stroke-width="2" points="202,-92.8 202,-169.6 280,-169.6 280,-92.8 202,-92.8"></polygon><text text-anchor="middle" x="241" y="-153" font-family="Arial" font-size="14.00" fill="#666666">lb</text></g><g id="clust1" class="cluster"><title>cluster_k3s-cluster</title><polygon fill="none" stroke="#000000" stroke-width="2" points="8,-8 8,-84.8 352,-84.8 352,-8 8,-8"></polygon><text text-anchor="middle" x="180" y="-68.2" font-family="Arial" font-size="14.00" fill="#000000">k3s-cluster</text></g><!-- k3s&#45;cluster:kubeapi&#45;proxy --><g id="node1" class="node"><title>k3s-cluster:kubeapi-proxy</title><path fill="#ffffff" stroke="#4b75b9" stroke-width="3" d="M331.906,-52C331.906,-52 252.094,-52 252.094,-52 246.094,-52 240.094,-46 240.094,-40 240.094,-40 240.094,-28 240.094,-28 240.094,-22 246.094,-16 252.094,-16 252.094,-16 331.906,-16 331.906,-16 337.906,-16 343.906,-22 343.906,-28 343.906,-28 343.906,-40 343.906,-40 343.906,-46 337.906,-52 331.906,-52"></path><text text-anchor="middle" x="292" y="-29.8" font-family="Arial" font-size="14.00" fill="#333333">kubeapi-proxy</text></g><!-- k3s&#45;cluster:teleport --><g id="node2" class="node"><title>k3s-cluster:teleport</title><path fill="#ffffff" stroke="#4b75b9" stroke-width="3" d="M210.1796,-52C210.1796,-52 171.8204,-52 171.8204,-52 165.8204,-52 159.8204,-46 159.8204,-40 159.8204,-40 159.8204,-28 159.8204,-28 159.8204,-22 165.8204,-16 171.8204,-16 171.8204,-16 210.1796,-16 210.1796,-16 216.1796,-16 222.1796,-22 222.1796,-28 222.1796,-28 222.1796,-40 222.1796,-40 222.1796,-46 216.1796,-52 210.1796,-52"></path><text text-anchor="middle" x="191" y="-29.8" font-family="Arial" font-size="14.00" fill="#333333">teleport</text></g><!-- k3s&#45;cluster:gitpod --><g id="node3" class="node"><title>k3s-cluster:gitpod</title><path fill="#ffffff" stroke="#4b75b9" stroke-width="3" d="M130.1278,-52C130.1278,-52 99.8722,-52 99.8722,-52 93.8722,-52 87.8722,-46 87.8722,-40 87.8722,-40 87.8722,-28 87.8722,-28 87.8722,-22 93.8722,-16 99.8722,-16 99.8722,-16 130.1278,-16 130.1278,-16 136.1278,-16 142.1278,-22 142.1278,-28 142.1278,-28 142.1278,-40 142.1278,-40 142.1278,-46 136.1278,-52 130.1278,-52"></path><text text-anchor="middle" x="115" y="-29.8" font-family="Arial" font-size="14.00" fill="#333333">gitpod</text></g><!-- k3s&#45;cluster:rook --><g id="node4" class="node"><title>k3s-cluster:rook</title><path fill="#ffffff" stroke="#4b75b9" stroke-width="3" d="M58,-52C58,-52 28,-52 28,-52 22,-52 16,-46 16,-40 16,-40 16,-28 16,-28 16,-22 22,-16 28,-16 28,-16 58,-16 58,-16 64,-16 70,-22 70,-28 70,-28 70,-40 70,-40 70,-46 64,-52 58,-52"></path><text text-anchor="middle" x="43" y="-29.8" font-family="Arial" font-size="14.00" fill="#333333">rook</text></g><!-- lb:metallb --><g id="node5" class="node"><title>lb:metallb</title><path fill="#ffffff" stroke="#4b75b9" stroke-width="3" d="M259.6123,-136.8C259.6123,-136.8 222.3877,-136.8 222.3877,-136.8 216.3877,-136.8 210.3877,-130.8 210.3877,-124.8 210.3877,-124.8 210.3877,-112.8 210.3877,-112.8 210.3877,-106.8 216.3877,-100.8 222.3877,-100.8 222.3877,-100.8 259.6123,-100.8 259.6123,-100.8 265.6123,-100.8 271.6123,-106.8 271.6123,-112.8 271.6123,-112.8 271.6123,-124.8 271.6123,-124.8 271.6123,-130.8 265.6123,-136.8 259.6123,-136.8"></path><text text-anchor="middle" x="241" y="-114.6" font-family="Arial" font-size="14.00" fill="#333333">metallb</text></g><!-- lb:metallb&#45;&gt;k3s&#45;cluster:kubeapi&#45;proxy --><g id="edge1" class="edge"><title>lb:metallb-&gt;k3s-cluster:kubeapi-proxy</title><path fill="none" stroke="#333333" stroke-width="2" stroke-opacity="0.600000" d="M255.8016,-100.3997C255.8016,-100.3997 255.8016,-62.0731 255.8016,-62.0731"></path><polygon fill="#333333" fill-opacity="0.600000" stroke="#333333" stroke-width="2" stroke-opacity="0.600000" points="259.3016,-62.0731 255.8016,-52.0731 252.3016,-62.0731 259.3016,-62.0731"></polygon></g><!-- lb:metallb&#45;&gt;k3s&#45;cluster:teleport --><g id="edge2" class="edge"><title>lb:metallb-&gt;k3s-cluster:teleport</title><path fill="none" stroke="#333333" stroke-width="2" stroke-opacity="0.600000" d="M216.3917,-100.3997C216.3917,-100.3997 216.3917,-62.0731 216.3917,-62.0731"></path><polygon fill="#333333" fill-opacity="0.600000" stroke="#333333" stroke-width="2" stroke-opacity="0.600000" points="219.8917,-62.0731 216.3917,-52.0731 212.8917,-62.0731 219.8917,-62.0731"></polygon></g></g></svg>