<?xml version="1.0" encoding="UTF-8" standalone="no"?><!-- Generated by graphviz version 2.40.1 (20161225.0304)
 --><!-- Title: ndiag Pages: 1 --><svg width="224pt" height="270pt" viewBox="0.00 0.00 224.00 270.40" xmlns="http://www.w3.org/2000/svg" xmlns:xlink="http://www.w3.org/1999/xlink"><g id="graph0" class="graph" transform="scale(1 1) rotate(0) translate(4 266.4)"><title>ndiag</title><polygon fill="#ffffff" stroke="transparent" points="-4,4 -4,-266.4 220,-266.4 220,4 -4,4"></polygon><g id="clust3" class="cluster"><title>cluster_k3s-cluster</title><polygon fill="none" stroke="#999999" stroke-width="2" points="8,-8 8,-84.8 208,-84.8 208,-8 8,-8"></polygon><text text-anchor="middle" x="108" y="-68.2" font-family="Arial" font-size="14.00" fill="#666666">k3s-cluster</text></g><g id="clust2" class="cluster"><title>cluster_vyOS</title><polygon fill="none" stroke="#999999" stroke-width="2" points="62,-177.6 62,-254.4 132,-254.4 132,-177.6 62,-177.6"></polygon><text text-anchor="middle" x="97" y="-237.8" font-family="Arial" font-size="14.00" fill="#666666">vyOS</text></g><g id="clust1" class="cluster"><title>cluster_lb</title><polygon fill="none" stroke="#000000" stroke-width="2" points="58,-92.8 58,-169.6 136,-169.6 136,-92.8 58,-92.8"></polygon><text text-anchor="middle" x="97" y="-153" font-family="Arial" font-size="14.00" fill="#000000">lb</text></g><!-- lb:metallb --><g id="node1" class="node"><title>lb:metallb</title><path fill="#ffffff" stroke="#4b75b9" stroke-width="3" d="M115.6123,-136.8C115.6123,-136.8 78.3877,-136.8 78.3877,-136.8 72.3877,-136.8 66.3877,-130.8 66.3877,-124.8 66.3877,-124.8 66.3877,-112.8 66.3877,-112.8 66.3877,-106.8 72.3877,-100.8 78.3877,-100.8 78.3877,-100.8 115.6123,-100.8 115.6123,-100.8 121.6123,-100.8 127.6123,-106.8 127.6123,-112.8 127.6123,-112.8 127.6123,-124.8 127.6123,-124.8 127.6123,-130.8 121.6123,-136.8 115.6123,-136.8"></path><text text-anchor="middle" x="97" y="-114.6" font-family="Arial" font-size="14.00" fill="#333333">metallb</text></g><!-- k3s&#45;cluster:kubeapi&#45;proxy --><g id="node3" class="node"><title>k3s-cluster:kubeapi-proxy</title><path fill="#ffffff" stroke="#4b75b9" stroke-width="3" d="M187.906,-52C187.906,-52 108.094,-52 108.094,-52 102.094,-52 96.094,-46 96.094,-40 96.094,-40 96.094,-28 96.094,-28 96.094,-22 102.094,-16 108.094,-16 108.094,-16 187.906,-16 187.906,-16 193.906,-16 199.906,-22 199.906,-28 199.906,-28 199.906,-40 199.906,-40 199.906,-46 193.906,-52 187.906,-52"></path><text text-anchor="middle" x="148" y="-29.8" font-family="Arial" font-size="14.00" fill="#333333">kubeapi-proxy</text></g><!-- lb:metallb&#45;&gt;k3s&#45;cluster:kubeapi&#45;proxy --><g id="edge2" class="edge"><title>lb:metallb-&gt;k3s-cluster:kubeapi-proxy</title><path fill="none" stroke="#333333" stroke-width="2" stroke-opacity="0.600000" d="M111.8016,-100.3997C111.8016,-100.3997 111.8016,-62.0731 111.8016,-62.0731"></path><polygon fill="#333333" fill-opacity="0.600000" stroke="#333333" stroke-width="2" stroke-opacity="0.600000" points="115.3016,-62.0731 111.8016,-52.0731 108.3016,-62.0731 115.3016,-62.0731"></polygon></g><!-- k3s&#45;cluster:teleport --><g id="node4" class="node"><title>k3s-cluster:teleport</title><path fill="#ffffff" stroke="#4b75b9" stroke-width="3" d="M66.1796,-52C66.1796,-52 27.8204,-52 27.8204,-52 21.8204,-52 15.8204,-46 15.8204,-40 15.8204,-40 15.8204,-28 15.8204,-28 15.8204,-22 21.8204,-16 27.8204,-16 27.8204,-16 66.1796,-16 66.1796,-16 72.1796,-16 78.1796,-22 78.1796,-28 78.1796,-28 78.1796,-40 78.1796,-40 78.1796,-46 72.1796,-52 66.1796,-52"></path><text text-anchor="middle" x="47" y="-29.8" font-family="Arial" font-size="14.00" fill="#333333">teleport</text></g><!-- lb:metallb&#45;&gt;k3s&#45;cluster:teleport --><g id="edge3" class="edge"><title>lb:metallb-&gt;k3s-cluster:teleport</title><path fill="none" stroke="#333333" stroke-width="2" stroke-opacity="0.600000" d="M72.3917,-100.3997C72.3917,-100.3997 72.3917,-62.0731 72.3917,-62.0731"></path><polygon fill="#333333" fill-opacity="0.600000" stroke="#333333" stroke-width="2" stroke-opacity="0.600000" points="75.8917,-62.0731 72.3917,-52.0731 68.8917,-62.0731 75.8917,-62.0731"></polygon></g><!-- vyos:bgpd --><g id="node2" class="node"><title>vyos:bgpd</title><path fill="#ffffff" stroke="#4b75b9" stroke-width="3" d="M112,-221.6C112,-221.6 82,-221.6 82,-221.6 76,-221.6 70,-215.6 70,-209.6 70,-209.6 70,-197.6 70,-197.6 70,-191.6 76,-185.6 82,-185.6 82,-185.6 112,-185.6 112,-185.6 118,-185.6 124,-191.6 124,-197.6 124,-197.6 124,-209.6 124,-209.6 124,-215.6 118,-221.6 112,-221.6"></path><text text-anchor="middle" x="97" y="-199.4" font-family="Arial" font-size="14.00" fill="#333333">bgpd</text></g><!-- vyos:bgpd&#45;&gt;lb:metallb --><g id="edge1" class="edge"><title>vyos:bgpd-&gt;lb:metallb</title><path fill="none" stroke="#333333" stroke-width="2" stroke-opacity="0.600000" d="M97,-185.1997C97,-185.1997 97,-146.8731 97,-146.8731"></path><polygon fill="#333333" fill-opacity="0.600000" stroke="#333333" stroke-width="2" stroke-opacity="0.600000" points="100.5001,-146.8731 97,-136.8731 93.5001,-146.8731 100.5001,-146.8731"></polygon></g></g></svg>