<?xml version="1.0" encoding="UTF-8" standalone="no"?><!-- Generated by graphviz version 2.40.1 (20161225.0304)
 --><!-- Title: ndiag Pages: 1 --><svg width="202pt" height="101pt" viewBox="0.00 0.00 201.79 101.00" xmlns="http://www.w3.org/2000/svg" xmlns:xlink="http://www.w3.org/1999/xlink"><g id="graph0" class="graph" transform="scale(1 1) rotate(0) translate(4 97)"><title>ndiag</title><polygon fill="#ffffff" stroke="transparent" points="-4,4 -4,-97 197.791,-97 197.791,4 -4,4"></polygon><g id="clust2" class="cluster"><title>cluster_lb</title><polygon fill="none" stroke="#000000" stroke-width="2" points="8,-8 8,-85 85.1122,-85 85.1122,-8 8,-8"></polygon><text text-anchor="middle" x="46.5561" y="-68.4" font-family="Arial" font-size="14.00" fill="#000000">lb</text></g><g id="clust1" class="cluster"><title>cluster_k3s-cluster</title><polygon fill="none" stroke="#000000" stroke-width="2" points="105.1122,-8 105.1122,-85 187.791,-85 187.791,-8 105.1122,-8"></polygon><text text-anchor="middle" x="146.4516" y="-68.4" font-family="Arial" font-size="14.00" fill="#000000">k3s-cluster</text></g><!-- k3s&#45;cluster:teleport --><g id="node1" class="node"><title>k3s-cluster:teleport</title><path fill="#ffffff" stroke="#4b75b9" stroke-width="3" d="M165.6312,-52C165.6312,-52 127.272,-52 127.272,-52 121.272,-52 115.272,-46 115.272,-40 115.272,-40 115.272,-28 115.272,-28 115.272,-22 121.272,-16 127.272,-16 127.272,-16 165.6312,-16 165.6312,-16 171.6312,-16 177.6312,-22 177.6312,-28 177.6312,-28 177.6312,-40 177.6312,-40 177.6312,-46 171.6312,-52 165.6312,-52"></path><text text-anchor="middle" x="146.4516" y="-29.8" font-family="Arial" font-size="14.00" fill="#333333">teleport</text></g><!-- lb:metallb --><g id="node2" class="node"><title>lb:metallb</title><path fill="#ffffff" stroke="#4b75b9" stroke-width="3" d="M65.1684,-52C65.1684,-52 27.9438,-52 27.9438,-52 21.9438,-52 15.9438,-46 15.9438,-40 15.9438,-40 15.9438,-28 15.9438,-28 15.9438,-22 21.9438,-16 27.9438,-16 27.9438,-16 65.1684,-16 65.1684,-16 71.1684,-16 77.1684,-22 77.1684,-28 77.1684,-28 77.1684,-40 77.1684,-40 77.1684,-46 71.1684,-52 65.1684,-52"></path><text text-anchor="middle" x="46.5561" y="-29.8" font-family="Arial" font-size="14.00" fill="#333333">metallb</text></g><!-- lb:metallb&#45;&gt;k3s&#45;cluster:teleport --><g id="edge-0" class="edge"><title>lb:metallb-&gt;k3s-cluster:teleport</title><path fill="none" stroke="#333333" stroke-width="2" stroke-opacity="0.600000" d="M77.3432,-34C77.3432,-34 105.2496,-34 105.2496,-34"></path><polygon fill="#333333" fill-opacity="0.600000" stroke="#333333" stroke-width="2" stroke-opacity="0.600000" points="105.2496,-37.5001 115.2496,-34 105.2496,-30.5001 105.2496,-37.5001"></polygon></g></g></svg>