<?xml version="1.0" encoding="UTF-8" standalone="no"?><!-- Generated by graphviz version 2.40.1 (20161225.0304)
 --><!-- Title: ndiag Pages: 1 --><svg width="191pt" height="101pt" viewBox="0.00 0.00 191.11 101.00" xmlns="http://www.w3.org/2000/svg" xmlns:xlink="http://www.w3.org/1999/xlink"><g id="graph0" class="graph" transform="scale(1 1) rotate(0) translate(4 97)"><title>ndiag</title><polygon fill="#ffffff" stroke="transparent" points="-4,4 -4,-97 187.1122,-97 187.1122,4 -4,4"></polygon><g id="clust2" class="cluster"><title>cluster_lb</title><polygon fill="none" stroke="#000000" stroke-width="2" points="98,-8 98,-85 175.1122,-85 175.1122,-8 98,-8"></polygon><text text-anchor="middle" x="136.5561" y="-68.4" font-family="Arial" font-size="14.00" fill="#000000">lb</text></g><g id="clust1" class="cluster"><title>cluster_vyOS</title><polygon fill="none" stroke="#000000" stroke-width="2" points="8,-8 8,-85 78,-85 78,-8 8,-8"></polygon><text text-anchor="middle" x="43" y="-68.4" font-family="Arial" font-size="14.00" fill="#000000">vyOS</text></g><!-- vyos:bgpd --><g id="node1" class="node"><title>vyos:bgpd</title><path fill="#ffffff" stroke="#4b75b9" stroke-width="3" d="M58,-52C58,-52 28,-52 28,-52 22,-52 16,-46 16,-40 16,-40 16,-28 16,-28 16,-22 22,-16 28,-16 28,-16 58,-16 58,-16 64,-16 70,-22 70,-28 70,-28 70,-40 70,-40 70,-46 64,-52 58,-52"></path><text text-anchor="middle" x="43" y="-29.8" font-family="Arial" font-size="14.00" fill="#333333">bgpd</text></g><!-- lb:metallb --><g id="node2" class="node"><title>lb:metallb</title><path fill="#ffffff" stroke="#4b75b9" stroke-width="3" d="M155.1684,-52C155.1684,-52 117.9438,-52 117.9438,-52 111.9438,-52 105.9438,-46 105.9438,-40 105.9438,-40 105.9438,-28 105.9438,-28 105.9438,-22 111.9438,-16 117.9438,-16 117.9438,-16 155.1684,-16 155.1684,-16 161.1684,-16 167.1684,-22 167.1684,-28 167.1684,-28 167.1684,-40 167.1684,-40 167.1684,-46 161.1684,-52 155.1684,-52"></path><text text-anchor="middle" x="136.5561" y="-29.8" font-family="Arial" font-size="14.00" fill="#333333">metallb</text></g><!-- vyos:bgpd&#45;&gt;lb:metallb --><g id="edge-0" class="edge"><title>vyos:bgpd-&gt;lb:metallb</title><path fill="none" stroke="#333333" stroke-width="2" stroke-opacity="0.600000" d="M70.0603,-34C70.0603,-34 95.9385,-34 95.9385,-34"></path><polygon fill="#333333" fill-opacity="0.600000" stroke="#333333" stroke-width="2" stroke-opacity="0.600000" points="95.9386,-37.5001 105.9385,-34 95.9385,-30.5001 95.9386,-37.5001"></polygon></g></g></svg>