<?xml version="1.0" encoding="UTF-8" standalone="no"?><!-- Generated by graphviz version 2.40.1 (20161225.0304)
 --><!-- Title: ndiag Pages: 1 --><svg width="177pt" height="101pt" viewBox="0.00 0.00 176.68 101.00" xmlns="http://www.w3.org/2000/svg" xmlns:xlink="http://www.w3.org/1999/xlink"><g id="graph0" class="graph" transform="scale(1 1) rotate(0) translate(4 97)"><title>ndiag</title><polygon fill="#ffffff" stroke="transparent" points="-4,4 -4,-97 172.6788,-97 172.6788,4 -4,4"></polygon><g id="clust1" class="cluster"><title>cluster_vyOS</title><polygon fill="none" stroke="#000000" stroke-width="2" points="90.6788,-8 90.6788,-85 160.6788,-85 160.6788,-8 90.6788,-8"></polygon><text text-anchor="middle" x="125.6788" y="-68.4" font-family="Arial" font-size="14.00" fill="#000000">vyOS</text></g><!-- vyos:bgpd --><g id="node1" class="node"><title>vyos:bgpd</title><path fill="#ffffff" stroke="#4b75b9" stroke-width="3" d="M140.6788,-52C140.6788,-52 110.6788,-52 110.6788,-52 104.6788,-52 98.6788,-46 98.6788,-40 98.6788,-40 98.6788,-28 98.6788,-28 98.6788,-22 104.6788,-16 110.6788,-16 110.6788,-16 140.6788,-16 140.6788,-16 146.6788,-16 152.6788,-22 152.6788,-28 152.6788,-28 152.6788,-40 152.6788,-40 152.6788,-46 146.6788,-52 140.6788,-52"></path><text text-anchor="middle" x="125.6788" y="-29.8" font-family="Arial" font-size="14.00" fill="#333333">bgpd</text></g><!-- internet --><g id="node2" class="node"><title>internet</title><path fill="none" stroke="#000000" stroke-width="2" d="M50.519,-52C50.519,-52 12.1598,-52 12.1598,-52 6.1598,-52 .1598,-46 .1598,-40 .1598,-40 .1598,-28 .1598,-28 .1598,-22 6.1598,-16 12.1598,-16 12.1598,-16 50.519,-16 50.519,-16 56.519,-16 62.519,-22 62.519,-28 62.519,-28 62.519,-40 62.519,-40 62.519,-46 56.519,-52 50.519,-52"></path><text text-anchor="middle" x="31.3394" y="-29.8" font-family="Arial" font-size="14.00" fill="#000000">internet</text></g><!-- internet&#45;&gt;vyos:bgpd --><g id="edge-0" class="edge"><title>internet-&gt;vyos:bgpd</title><path fill="none" stroke="#333333" stroke-width="2" stroke-opacity="0.600000" d="M62.7531,-34C62.7531,-34 88.5106,-34 88.5106,-34"></path><polygon fill="#333333" fill-opacity="0.600000" stroke="#333333" stroke-width="2" stroke-opacity="0.600000" points="88.5106,-37.5001 98.5106,-34 88.5106,-30.5001 88.5106,-37.5001"></polygon></g></g></svg>