<?xml version="1.0" encoding="UTF-8" standalone="no"?><!-- Generated by graphviz version 2.40.1 (20161225.0304)
 --><!-- Title: ndiag Pages: 1 --><svg width="241pt" height="101pt" viewBox="0.00 0.00 241.02 101.00" xmlns="http://www.w3.org/2000/svg" xmlns:xlink="http://www.w3.org/1999/xlink"><g id="graph0" class="graph" transform="scale(1 1) rotate(0) translate(4 97)"><title>ndiag</title><polygon fill="#ffffff" stroke="transparent" points="-4,4 -4,-97 237.0182,-97 237.0182,4 -4,4"></polygon><g id="clust2" class="cluster"><title>cluster_lb</title><polygon fill="none" stroke="#000000" stroke-width="2" points="8,-8 8,-85 85.1122,-85 85.1122,-8 8,-8"></polygon><text text-anchor="middle" x="46.5561" y="-68.4" font-family="Arial" font-size="14.00" fill="#000000">lb</text></g><g id="clust1" class="cluster"><title>cluster_k3s-cluster</title><polygon fill="none" stroke="#000000" stroke-width="2" points="105.1122,-8 105.1122,-85 225.0182,-85 225.0182,-8 105.1122,-8"></polygon><text text-anchor="middle" x="165.0652" y="-68.4" font-family="Arial" font-size="14.00" fill="#000000">k3s-cluster</text></g><!-- k3s&#45;cluster:kubeapi&#45;proxy --><g id="node1" class="node"><title>k3s-cluster:kubeapi-proxy</title><path fill="#ffffff" stroke="#4b75b9" stroke-width="3" d="M204.9712,-52C204.9712,-52 125.1592,-52 125.1592,-52 119.1592,-52 113.1592,-46 113.1592,-40 113.1592,-40 113.1592,-28 113.1592,-28 113.1592,-22 119.1592,-16 125.1592,-16 125.1592,-16 204.9712,-16 204.9712,-16 210.9712,-16 216.9712,-22 216.9712,-28 216.9712,-28 216.9712,-40 216.9712,-40 216.9712,-46 210.9712,-52 204.9712,-52"></path><text text-anchor="middle" x="165.0652" y="-29.8" font-family="Arial" font-size="14.00" fill="#333333">kubeapi-proxy</text></g><!-- lb:metallb --><g id="node2" class="node"><title>lb:metallb</title><path fill="#ffffff" stroke="#4b75b9" stroke-width="3" d="M65.1684,-52C65.1684,-52 27.9438,-52 27.9438,-52 21.9438,-52 15.9438,-46 15.9438,-40 15.9438,-40 15.9438,-28 15.9438,-28 15.9438,-22 21.9438,-16 27.9438,-16 27.9438,-16 65.1684,-16 65.1684,-16 71.1684,-16 77.1684,-22 77.1684,-28 77.1684,-28 77.1684,-40 77.1684,-40 77.1684,-46 71.1684,-52 65.1684,-52"></path><text text-anchor="middle" x="46.5561" y="-29.8" font-family="Arial" font-size="14.00" fill="#333333">metallb</text></g><!-- lb:metallb&#45;&gt;k3s&#45;cluster:kubeapi&#45;proxy --><g id="edge-0" class="edge"><title>lb:metallb-&gt;k3s-cluster:kubeapi-proxy</title><path fill="none" stroke="#333333" stroke-width="2" stroke-opacity="0.600000" d="M77.3836,-34C77.3836,-34 102.8199,-34 102.8199,-34"></path><polygon fill="#333333" fill-opacity="0.600000" stroke="#333333" stroke-width="2" stroke-opacity="0.600000" points="102.82,-37.5001 112.8199,-34 102.8199,-30.5001 102.82,-37.5001"></polygon></g></g></svg>