<?xml version="1.0" encoding="UTF-8" standalone="no"?><!-- Generated by graphviz version 2.40.1 (20161225.0304)
 --><!-- Title: ndiag Pages: 1 --><svg width="368pt" height="355pt" viewBox="0.00 0.00 368.00 355.20" xmlns="http://www.w3.org/2000/svg" xmlns:xlink="http://www.w3.org/1999/xlink"><g id="graph0" class="graph" transform="scale(1 1) rotate(0) translate(4 351.2)"><title>ndiag</title><polygon fill="#ffffff" stroke="transparent" points="-4,4 -4,-351.2 364,-351.2 364,4 -4,4"></polygon><g id="clust4" class="cluster"><title>cluster_lb</title><polygon fill="none" stroke="#000000" stroke-width="2" points="162,-92.8 162,-169.6 240,-169.6 240,-92.8 162,-92.8"></polygon><text text-anchor="middle" x="201" y="-153" font-family="Arial" font-size="14.00" fill="#000000">lb</text></g><g id="clust3" class="cluster"><title>cluster_vyOS</title><polygon fill="none" stroke="#000000" stroke-width="2" points="166,-177.6 166,-254.4 236,-254.4 236,-177.6 166,-177.6"></polygon><text text-anchor="middle" x="201" y="-237.8" font-family="Arial" font-size="14.00" fill="#000000">vyOS</text></g><g id="clust2" class="cluster"><title>cluster_db</title><polygon fill="none" stroke="#000000" stroke-width="2" points="263,-262.4 263,-339.2 341,-339.2 341,-262.4 263,-262.4"></polygon><text text-anchor="middle" x="302" y="-322.6" font-family="Arial" font-size="14.00" fill="#000000">db</text></g><g id="clust1" class="cluster"><title>cluster_k3s-cluster</title><polygon fill="none" stroke="#000000" stroke-width="2" points="8,-8 8,-84.8 352,-84.8 352,-8 8,-8"></polygon><text text-anchor="middle" x="180" y="-68.2" font-family="Arial" font-size="14.00" fill="#000000">k3s-cluster</text></g><!-- k3s&#45;cluster:kubeapi&#45;proxy --><g id="node1" class="node"><title>k3s-cluster:kubeapi-proxy</title><path fill="#ffffff" stroke="#4b75b9" stroke-width="3" d="M331.906,-52C331.906,-52 252.094,-52 252.094,-52 246.094,-52 240.094,-46 240.094,-40 240.094,-40 240.094,-28 240.094,-28 240.094,-22 246.094,-16 252.094,-16 252.094,-16 331.906,-16 331.906,-16 337.906,-16 343.906,-22 343.906,-28 343.906,-28 343.906,-40 343.906,-40 343.906,-46 337.906,-52 331.906,-52"></path><text text-anchor="middle" x="292" y="-29.8" font-family="Arial" font-size="14.00" fill="#333333">kubeapi-proxy</text></g><!-- k3s&#45;cluster:teleport --><g id="node2" class="node"><title>k3s-cluster:teleport</title><path fill="#ffffff" stroke="#4b75b9" stroke-width="3" d="M210.1796,-52C210.1796,-52 171.8204,-52 171.8204,-52 165.8204,-52 159.8204,-46 159.8204,-40 159.8204,-40 159.8204,-28 159.8204,-28 159.8204,-22 165.8204,-16 171.8204,-16 171.8204,-16 210.1796,-16 210.1796,-16 216.1796,-16 222.1796,-22 222.1796,-28 222.1796,-28 222.1796,-40 222.1796,-40 222.1796,-46 216.1796,-52 210.1796,-52"></path><text text-anchor="middle" x="191" y="-29.8" font-family="Arial" font-size="14.00" fill="#333333">teleport</text></g><!-- k3s&#45;cluster:gitpod --><g id="node3" class="node"><title>k3s-cluster:gitpod</title><path fill="#ffffff" stroke="#4b75b9" stroke-width="3" d="M130.1278,-52C130.1278,-52 99.8722,-52 99.8722,-52 93.8722,-52 87.8722,-46 87.8722,-40 87.8722,-40 87.8722,-28 87.8722,-28 87.8722,-22 93.8722,-16 99.8722,-16 99.8722,-16 130.1278,-16 130.1278,-16 136.1278,-16 142.1278,-22 142.1278,-28 142.1278,-28 142.1278,-40 142.1278,-40 142.1278,-46 136.1278,-52 130.1278,-52"></path><text text-anchor="middle" x="115" y="-29.8" font-family="Arial" font-size="14.00" fill="#333333">gitpod</text></g><!-- k3s&#45;cluster:rook --><g id="node4" class="node"><title>k3s-cluster:rook</title><path fill="#ffffff" stroke="#4b75b9" stroke-width="3" d="M58,-52C58,-52 28,-52 28,-52 22,-52 16,-46 16,-40 16,-40 16,-28 16,-28 16,-22 22,-16 28,-16 28,-16 58,-16 58,-16 64,-16 70,-22 70,-28 70,-28 70,-40 70,-40 70,-46 64,-52 58,-52"></path><text text-anchor="middle" x="43" y="-29.8" font-family="Arial" font-size="14.00" fill="#333333">rook</text></g><!-- db:mysql --><g id="node5" class="node"><title>db:mysql</title><path fill="#ffffff" stroke="#4b75b9" stroke-width="3" d="M321.1713,-306.4C321.1713,-306.4 282.8287,-306.4 282.8287,-306.4 276.8287,-306.4 270.8287,-300.4 270.8287,-294.4 270.8287,-294.4 270.8287,-282.4 270.8287,-282.4 270.8287,-276.4 276.8287,-270.4 282.8287,-270.4 282.8287,-270.4 321.1713,-270.4 321.1713,-270.4 327.1713,-270.4 333.1713,-276.4 333.1713,-282.4 333.1713,-282.4 333.1713,-294.4 333.1713,-294.4 333.1713,-300.4 327.1713,-306.4 321.1713,-306.4"></path><text text-anchor="middle" x="302" y="-284.2" font-family="Arial" font-size="14.00" fill="#333333">mySQL</text></g><!-- vyos:bgpd --><g id="node6" class="node"><title>vyos:bgpd</title><path fill="#ffffff" stroke="#4b75b9" stroke-width="3" d="M216,-221.6C216,-221.6 186,-221.6 186,-221.6 180,-221.6 174,-215.6 174,-209.6 174,-209.6 174,-197.6 174,-197.6 174,-191.6 180,-185.6 186,-185.6 186,-185.6 216,-185.6 216,-185.6 222,-185.6 228,-191.6 228,-197.6 228,-197.6 228,-209.6 228,-209.6 228,-215.6 222,-221.6 216,-221.6"></path><text text-anchor="middle" x="201" y="-199.4" font-family="Arial" font-size="14.00" fill="#333333">bgpd</text></g><!-- lb:metallb --><g id="node7" class="node"><title>lb:metallb</title><path fill="#ffffff" stroke="#4b75b9" stroke-width="3" d="M219.6123,-136.8C219.6123,-136.8 182.3877,-136.8 182.3877,-136.8 176.3877,-136.8 170.3877,-130.8 170.3877,-124.8 170.3877,-124.8 170.3877,-112.8 170.3877,-112.8 170.3877,-106.8 176.3877,-100.8 182.3877,-100.8 182.3877,-100.8 219.6123,-100.8 219.6123,-100.8 225.6123,-100.8 231.6123,-106.8 231.6123,-112.8 231.6123,-112.8 231.6123,-124.8 231.6123,-124.8 231.6123,-130.8 225.6123,-136.8 219.6123,-136.8"></path><text text-anchor="middle" x="201" y="-114.6" font-family="Arial" font-size="14.00" fill="#333333">metallb</text></g><!-- vyos:bgpd&#45;&gt;lb:metallb --><g id="edge-1" class="edge"><title>vyos:bgpd-&gt;lb:metallb</title><path fill="none" stroke="#333333" stroke-width="2" stroke-opacity="0.600000" d="M201,-185.1997C201,-185.1997 201,-146.8731 201,-146.8731"></path><polygon fill="#333333" fill-opacity="0.600000" stroke="#333333" stroke-width="2" stroke-opacity="0.600000" points="204.5001,-146.8731 201,-136.8731 197.5001,-146.8731 204.5001,-146.8731"></polygon></g><!-- lb:metallb&#45;&gt;k3s&#45;cluster:kubeapi&#45;proxy --><g id="edge-2" class="edge"><title>lb:metallb-&gt;k3s-cluster:kubeapi-proxy</title><path fill="none" stroke="#333333" stroke-width="2" stroke-opacity="0.600000" d="M226.9478,-100.3997C226.9478,-75.4593 226.9478,-34 226.9478,-34 226.9478,-34 229.8,-34 229.8,-34"></path><polygon fill="#333333" fill-opacity="0.600000" stroke="#333333" stroke-width="2" stroke-opacity="0.600000" points="229.8,-37.5001 239.8,-34 229.7999,-30.5001 229.8,-37.5001"></polygon></g><!-- lb:metallb&#45;&gt;k3s&#45;cluster:teleport --><g id="edge-3" class="edge"><title>lb:metallb-&gt;k3s-cluster:teleport</title><path fill="none" stroke="#333333" stroke-width="2" stroke-opacity="0.600000" d="M196.3917,-100.3997C196.3917,-100.3997 196.3917,-62.0731 196.3917,-62.0731"></path><polygon fill="#333333" fill-opacity="0.600000" stroke="#333333" stroke-width="2" stroke-opacity="0.600000" points="199.8917,-62.0731 196.3917,-52.0731 192.8917,-62.0731 199.8917,-62.0731"></polygon></g><!-- internet --><g id="node8" class="node"><title>internet</title><path fill="none" stroke="#000000" stroke-width="2" d="M220.1796,-306.4C220.1796,-306.4 181.8204,-306.4 181.8204,-306.4 175.8204,-306.4 169.8204,-300.4 169.8204,-294.4 169.8204,-294.4 169.8204,-282.4 169.8204,-282.4 169.8204,-276.4 175.8204,-270.4 181.8204,-270.4 181.8204,-270.4 220.1796,-270.4 220.1796,-270.4 226.1796,-270.4 232.1796,-276.4 232.1796,-282.4 232.1796,-282.4 232.1796,-294.4 232.1796,-294.4 232.1796,-300.4 226.1796,-306.4 220.1796,-306.4"></path><text text-anchor="middle" x="201" y="-284.2" font-family="Arial" font-size="14.00" fill="#000000">internet</text></g><!-- internet&#45;&gt;vyos:bgpd --><g id="edge-0" class="edge"><title>internet-&gt;vyos:bgpd</title><path fill="none" stroke="#333333" stroke-width="2" stroke-opacity="0.600000" d="M201,-269.9997C201,-269.9997 201,-231.6731 201,-231.6731"></path><polygon fill="#333333" fill-opacity="0.600000" stroke="#333333" stroke-width="2" stroke-opacity="0.600000" points="204.5001,-231.6731 201,-221.6731 197.5001,-231.6731 204.5001,-231.6731"></polygon></g></g></svg>